<?xml version="1.0" encoding="UTF-8"?>
<svg version="1.1" xmlns="http://www.w3.org/2000/svg" width="1024" height="1024">
<path d="M0 0 C337.92 0 675.84 0 1024 0 C1024 337.92 1024 675.84 1024 1024 C686.08 1024 348.16 1024 0 1024 C0 686.08 0 348.16 0 0 Z " fill="#FEFEFE" transform="translate(0,0)"/>
<path d="M0 0 C5.45998925 3.88909849 10.43574207 8.14163143 15.3828125 12.66015625 C17.92873117 14.93628354 20.5322456 17.10294711 23.1875 19.25 C28.96563651 23.92947675 34.56898956 28.7941582 40.17578125 33.67578125 C43.76767945 36.80292032 47.38024351 39.90518766 51 43 C55.84929988 47.14842718 60.68067513 51.31679122 65.5 55.5 C73.77774383 62.68288337 82.07245278 69.84668604 90.44921875 76.9140625 C91.00826904 77.38658447 91.56731934 77.85910645 92.14331055 78.34594727 C93.24594902 79.27344088 94.3528274 80.19591987 95.46411133 81.11303711 C97.88371691 83.12389307 100.12709003 85.13922536 102.25 87.46484375 C105.64366364 91.12203051 108.07287835 93.12221725 113.109375 93.48828125 C117.09832821 93.57831047 121.02738284 93.35095514 125 93 C118.41620963 86.85283098 111.75975219 80.91531797 104.73828125 75.265625 C100.86987729 72.0649484 97.18944429 68.67409687 93.5078125 65.26171875 C91.07720126 63.06962544 88.57630752 61.01764586 86 59 C87.34417987 55.94034726 88.76082547 54.0652997 91.30078125 51.90625 C91.94853516 51.35066406 92.59628906 50.79507813 93.26367188 50.22265625 C93.93978516 49.65417969 94.61589844 49.08570313 95.3125 48.5 C95.97701172 47.93152344 96.64152344 47.36304688 97.32617188 46.77734375 C100.8338086 43.78665843 104.38114874 40.85588262 108 38 C112.46034294 39.41920003 115.32847558 41.86616727 118.625 45.0625 C123.36985502 49.54269003 128.26618198 53.72577976 133.3515625 57.8203125 C135.97275119 59.97757399 138.49154281 62.21311 141 64.5 C144.39598682 67.59555196 147.86171531 70.55151207 151.4375 73.4375 C156.20996203 77.29708603 160.73109109 81.37199991 165.24609375 85.52734375 C167.95603045 87.96052096 170.73095254 90.27257062 173.5625 92.5625 C174.45710938 93.29339844 175.35171875 94.02429688 176.2734375 94.77734375 C178.14403581 96.30222977 180.02484213 97.81465333 181.9140625 99.31640625 C188.69593863 104.96160173 188.69593863 104.96160173 189.62109375 108.12109375 C189.625 110.0625 189.625 110.0625 189 113 C185.04 113 181.08 113 177 113 C177.07855225 114.38952881 177.07855225 114.38952881 177.15869141 115.80712891 C178.7189162 147.51326658 178.7189162 147.51326658 171.39868164 155.77514648 C170.45629985 156.73699562 169.49011165 157.67610301 168.50146484 158.59033203 C166.90911355 160.08532982 165.48584498 161.66261698 164.05078125 163.30859375 C161.5972347 166.10539509 159.06639207 168.80685162 156.47607422 171.47705078 C155.06738922 172.93047074 153.67580525 174.40040739 152.28515625 175.87109375 C145.38779689 183.01153185 137.93064409 189.07272642 130 195 C129.44473633 195.4213623 128.88947266 195.84272461 128.31738281 196.27685547 C119.08912396 203.25664606 109.33034451 209.12032641 99.23095703 214.75097656 C97.27702836 215.84490292 95.33831106 216.96069424 93.40234375 218.0859375 C57.60109619 238.22670823 16.44349287 248.09634683 -24 253 C-24.65403809 253.08702682 -25.30807617 253.17405365 -25.98193359 253.26371765 C-32.12011815 254.0306055 -38.18582455 254.16115477 -44.3671875 254.16796875 C-45.44138947 254.17129715 -46.51559143 254.17462555 -47.62234497 254.17805481 C-49.88982723 254.18309603 -52.15731683 254.18546401 -54.42480469 254.18530273 C-57.83020873 254.18747147 -61.23527887 254.20560853 -64.640625 254.22460938 C-77.56296044 254.25795475 -90.1914928 253.72313123 -103 252 C-104.20848099 251.8425103 -104.20848099 251.8425103 -105.44137573 251.68183899 C-129.08485829 248.58309418 -150.02475198 241.29436432 -171 230 C-171 191.72 -171 153.44 -171 114 C-177.27 114 -183.54 114 -190 114 C-180.99340967 104.99340967 -171.77789628 96.29886121 -161.8203125 88.34765625 C-157.11081852 84.4274265 -152.69029491 80.19880954 -148.22265625 76.0078125 C-145.17862987 73.15453222 -142.07033123 70.38811991 -138.91015625 67.6640625 C-136.63795489 65.68459874 -134.41540128 63.6541683 -132.1875 61.625 C-128.72469918 58.49577173 -125.19320997 55.49499651 -121.5625 52.5625 C-115.829657 47.92708695 -110.40637486 43.00900108 -105 38 C-101.49172085 39.52079073 -99.04728354 41.5995673 -96.25 44.1875 C-92.38975637 47.74419332 -88.46067242 51.16854075 -84.3984375 54.4921875 C-83 56 -83 56 -83 59 C-84.25 60.578125 -84.25 60.578125 -86 62.25 C-86.64582031 62.86875 -87.29164063 63.4875 -87.95703125 64.125 C-90.49910409 66.45806876 -93.08602162 68.73144388 -95.69921875 70.984375 C-98.50772874 73.44480141 -101.25466556 75.96970033 -104 78.5 C-108.10612593 82.28248404 -112.24960172 86.01284199 -116.4765625 89.66015625 C-117.69172835 90.72887904 -118.8557106 91.8557106 -120 93 C-109.78530198 94.43267391 -109.78530198 94.43267391 -100.546875 90.796875 C-97.46984316 88.07903914 -94.75007003 85.04324566 -92 82 C-90.64720554 80.76685703 -89.27480085 79.55451347 -87.875 78.375 C-83.19355926 74.31259275 -78.60009665 70.15402667 -74 66 C-64.51127959 57.43139793 -64.51127959 57.43139793 -60.0625 53.5625 C-55.86557919 49.90821138 -51.7634724 46.15255027 -47.65234375 42.40234375 C-45.47539004 40.43058156 -43.28161326 38.48634663 -41.0625 36.5625 C-37.65311482 33.60116544 -34.32203624 30.55849695 -31 27.5 C-27.06983168 23.88161448 -23.10401988 20.31454749 -19.06640625 16.81640625 C-16.47183932 14.53573777 -13.92500488 12.2053544 -11.375 9.875 C-7.65637597 6.48220812 -3.90968102 3.17001164 0 0 Z " fill="#004290" transform="translate(514,306)"/>
<path d="M0 0 C13.74785956 10.85881661 23.15763602 27.69959658 29 44 C29.39316406 45.010625 29.78632812 46.02125 30.19140625 47.0625 C37.96477592 70.46386374 33.75722952 97.35852196 23.00048828 119.05029297 C17.29088474 130.17691422 10.49411547 139.83130223 2 149 C1.51047852 149.53334961 1.02095703 150.06669922 0.51660156 150.61621094 C-38.52178924 192.68670976 -98.07137078 212.63833928 -153.5625 220.125 C-154.76068359 220.29386719 -155.95886719 220.46273437 -157.19335938 220.63671875 C-218.23251802 228.99464128 -284.44363275 220.03153259 -340 193 C-341.33570824 192.37060698 -342.67164651 191.7417019 -344.0078125 191.11328125 C-356.58777372 185.09931149 -368.45150669 177.79614375 -380 170 C-379.34 169.67 -378.68 169.34 -378 169 C-375.13971863 170.11924054 -372.36186516 171.30575491 -369.5625 172.5625 C-293.44340809 205.49401535 -200.79002085 198.38014836 -124.85546875 168.83984375 C-97.01012823 157.57016746 -70.09387061 143.34202728 -47 124 C-45.99710938 123.18144531 -44.99421875 122.36289062 -43.9609375 121.51953125 C-19.57087007 101.46735634 2.98549468 75.60209069 7.68359375 43.265625 C9.05494789 29.11189583 7.93059454 16.61683607 0.98828125 3.9609375 C0 2 0 2 0 0 Z " fill="#0182C0" transform="translate(719,378)"/>
<path d="M0 0 C1.39984551 4.48060802 0.16504623 8.02887605 -1.08984375 12.4140625 C-1.31321915 13.22491302 -1.53659454 14.03576355 -1.76673889 14.8711853 C-2.48120475 17.45842408 -3.20879555 20.04173912 -3.9375 22.625 C-4.66013672 25.21602823 -5.38004356 27.80778443 -6.09754944 30.40023804 C-6.54472262 32.01273542 -6.99534232 33.62428167 -7.44969177 35.23477173 C-8.58962278 39.05842279 -8.58962278 39.05842279 -9 43 C-7.98679687 42.16855469 -7.98679687 42.16855469 -6.953125 41.3203125 C-6.06109375 40.59585938 -5.1690625 39.87140625 -4.25 39.125 C-3.36828125 38.40570312 -2.4865625 37.68640625 -1.578125 36.9453125 C2.11341442 34.15987821 3.88247826 32.96078871 8.5625 33.125 C12 34 12 34 13.875 35.5625 C17.46878646 43.34903733 15.29311282 49.53047082 12.5625 57.1875 C11.89058374 59.11621961 11.22497941 61.04715238 10.56640625 62.98046875 C10.26677979 63.82504639 9.96715332 64.66962402 9.65844727 65.53979492 C8.96516171 68.13016889 8.88048461 70.33102165 9 73 C12.26939041 73.3664975 13.66725462 73.22628825 16.4296875 71.34765625 C24.35377745 63.94255621 32.72178254 55.65012935 36 45 C35.94118366 42.34542273 35.58303369 39.87476663 35.15234375 37.2578125 C35 35 35 35 36.625 31.625 C41.00737101 26.78132678 41.00737101 26.78132678 44 25 C47.25 25.125 47.25 25.125 50 26 C52.0326419 30.0652838 51.17904475 34.75169592 50 39 C50.66386719 39.01417969 51.32773437 39.02835938 52.01171875 39.04296875 C56.49045112 39.28488568 59.32039156 39.55145843 63.125 42.0625 C65.02839963 45.04449275 65.83858667 47.1190266 65.62890625 50.68359375 C64.26700139 55.69980233 60.93902619 59.78970338 58 64 C55.64983886 67.63206722 54.62540748 69.62975394 55 74 C57.20438833 74.87754191 57.20438833 74.87754191 60 75 C62.38605943 73.78045851 63.98469627 72.70201986 66 71 C66.68964844 70.42765625 67.37929688 69.8553125 68.08984375 69.265625 C72.58488756 65.20139009 74.63548048 62.34150349 75.5234375 56.36328125 C77.33895614 47.36009453 83.19577767 39.77255024 90.625 34.6875 C95.51773873 31.50638488 100.10963524 30.05030587 106 31 C108.21484375 32.22265625 108.21484375 32.22265625 110 34 C111.12634668 38.11774792 110.77983287 42.26037283 109.03515625 46.15234375 C103.75646802 53.87911928 95.29698699 59.03452828 87 63 C86.53766508 66.9760803 86.69045429 68.56851204 89.0625 71.875 C91.85352937 74.20918659 91.85352937 74.20918659 95.25 74.625 C100.3096358 73.78172737 103.76065096 71.81476259 108 69 C109.31484375 68.16275391 109.31484375 68.16275391 110.65625 67.30859375 C116.89635838 62.912988 119.04148906 59.31295704 121.03515625 52.02734375 C124.00050231 42.72312028 130.71910349 36.73400902 139 32 C142.73140389 30.7561987 146.13000159 30.35374784 150 31 C153.0625 33 153.0625 33 155 36 C155.10718375 42.75257634 153.11248452 46.77501604 148.37890625 51.6796875 C142.88412056 56.8203394 136.56955536 60.39769381 130 64 C131.12233295 68.65479534 131.12233295 68.65479534 133.1875 72.9375 C136.3085743 74.76709528 138.42639628 74.45379095 142 74 C154.53960924 69.64480015 164.33023755 59.32220688 170.11328125 47.6171875 C171.29518126 44.12876015 170.75379905 41.71278192 170.08203125 38.171875 C169.924925 34.01229987 172.43556969 31.07587568 175 28 C176.9375 25.9375 176.9375 25.9375 179 25 C182.1875 25.1875 182.1875 25.1875 185 26 C186.57170996 29.14341993 186.23175783 32.55771451 186 36 C185.67 36.99 185.34 37.98 185 39 C185.74765625 39.01417969 186.4953125 39.02835938 187.265625 39.04296875 C195.25727107 39.42999873 195.25727107 39.42999873 198.6875 42.0625 C200.35559595 45.7958576 200.65348794 49.00745112 200 53 C198.65100457 55.95968408 196.87612001 58.5381143 195 61.1875 C190.61551506 67.00059414 190.61551506 67.00059414 190 74 C192.20438833 74.87754191 192.20438833 74.87754191 195 75 C197.43750456 73.8095908 198.96269217 72.74185409 201 71 C201.80179688 70.31550781 202.60359375 69.63101563 203.4296875 68.92578125 C209.0974014 63.70374812 212.221529 59.10071296 214.8671875 51.89453125 C218.29940968 43.12461182 224.11257155 37.18745334 231.875 32.125 C236.84679987 30.33515205 241.66252638 29.97379207 246.5625 32.125 C248.58743318 34.76621719 248.28748553 36.76578783 248 40 C248.99 40.33 249.98 40.66 251 41 C250.5363495 48.69020317 249.24501086 56.02515916 247.5234375 63.51953125 C246.99705883 67.01955661 247.21255835 69.57200403 248 73 C254.61764823 72.25565995 257.77939615 67.76495736 262 63 C262.58523438 62.35160156 263.17046875 61.70320312 263.7734375 61.03515625 C268.22823048 55.32533276 269.41287885 49.00939371 270.70825195 42.03149414 C271.08609644 40.01042082 271.53705402 38.0032935 272 36 C275.21451269 34.39274365 278.43612536 34.94251815 282 35 C282 37.64 282 40.28 282 43 C282.53109375 42.51789062 283.0621875 42.03578125 283.609375 41.5390625 C284.31578125 40.90742187 285.0221875 40.27578125 285.75 39.625 C286.79414062 38.68527344 286.79414062 38.68527344 287.859375 37.7265625 C291.84300803 34.51348623 295.01770453 33.46234829 300.09375 33.6328125 C302 34 302 34 304.5 35.9375 C307.63042243 42.32877913 306.07444316 48.7074869 303.8671875 55.203125 C303.58101562 56.00234375 303.29484375 56.8015625 303 57.625 C300.98552038 63.30546956 299.61019549 67.94178817 300 74 C304.69063247 74 306.90299719 72.48019939 310.125 69.3125 C314.9714417 64.08901065 317.92895735 59.33039768 320.375 52.625 C323.61216016 43.94980555 328.35796378 37.34757498 336 32 C339.73215404 30.75594865 343.13039057 30.33684659 347 31 C349.57811243 32.40574973 350.95162546 33.79799737 353 36 C353 36.99 353 37.98 353 39 C353.66 39 354.32 39 355 39 C355.33 37.68 355.66 36.36 356 35 C358.64 35 361.28 35 364 35 C365.33141647 38.99424942 364.2670807 40.57561805 362.8125 44.5 C359.61162399 53.47213541 357.79902402 62.66316586 356 72 C357.83443372 70.48047741 359.66776807 68.95967451 361.5 67.4375 C362.3199646 66.75675415 362.3199646 66.75675415 363.15649414 66.06225586 C366.2977805 63.44582629 369.38994888 60.78833267 372.4375 58.0625 C375.13143046 55.67789349 377.80602561 53.69679889 381 52 C381.33 52.99 381.66 53.98 382 55 C376.33836592 64.2684666 364.24207993 74.38365912 355 80 C354.34 80 353.68 80 353 80 C352.89405518 80.70237793 352.78811035 81.40475586 352.67895508 82.12841797 C351.3992274 90.23313924 349.65872852 98.16244454 347.6875 106.125 C347.40455078 107.32253906 347.12160156 108.52007813 346.83007812 109.75390625 C344.77037603 118.09318789 342.40606956 126.14576339 336.625 132.6875 C332.90605548 134.54697226 330.9567653 134.1800879 327 133 C321.0182747 129.36404933 318.74955774 124.69523493 317 118 C315.72333553 110.30421886 317.64758277 104.38013161 322 98 C327.09612865 91.82319542 333.30433379 87.0134949 339.83398438 82.44921875 C341.67903271 81.15494812 341.67903271 81.15494812 344 79 C344 77.68 344 76.36 344 75 C343.030625 75.804375 342.06125 76.60875 341.0625 77.4375 C336.90946273 80.39432775 333.07896844 81.31564211 328 81 C323.40334315 79.26348519 321.30263974 76.26414767 319 72 C318.75 69.125 318.75 69.125 319 67 C318.34 67 317.68 67 317 67 C316.76023437 67.56460938 316.52046875 68.12921875 316.2734375 68.7109375 C314.73358678 71.47889003 312.87066379 73.39425756 310.625 75.625 C309.85414063 76.40101563 309.08328125 77.17703125 308.2890625 77.9765625 C304.36745883 81.44309953 301.31684883 82.54699211 295.97265625 82.3671875 C294 82 294 82 291 80.0625 C287.96854338 75.42058205 288.40808307 70.92115992 289.49267578 65.56860352 C290.13618715 63.11283967 290.83160417 60.68114953 291.5625 58.25 C293.89217468 51.20240971 293.89217468 51.20240971 293 44 C289.77813013 44 287.65599418 44.45749004 285.1484375 46.53125 C279.46861863 52.62194938 277.64996325 58.4666184 276.1484375 66.50390625 C275.98947998 67.3129541 275.83052246 68.12200195 275.66674805 68.95556641 C275.35068699 70.59238594 275.05984867 72.23430552 274.79614258 73.88037109 C274.37535713 76.07964528 273.95634293 77.97436024 273 80 C269.38045708 81.92487194 267.11250497 82 263 82 C263.14262412 80.4372038 263.28925511 78.87477304 263.4375 77.3125 C263.51871094 76.44238281 263.59992188 75.57226562 263.68359375 74.67578125 C263.9908822 72.07710729 264.45162384 69.55755267 265 67 C264.25234375 67.84304688 263.5046875 68.68609375 262.734375 69.5546875 C261.73990084 70.66174364 260.74509151 71.76849875 259.75 72.875 C259.25886719 73.43058594 258.76773437 73.98617187 258.26171875 74.55859375 C254.40917322 78.82207747 252.15508009 80.81095789 246.4375 81.3125 C243 81 243 81 241.125 79.9375 C239.46514955 77.07886867 239.30684971 74.25260697 239 71 C238.34 71 237.68 71 237 71 C236.814375 71.556875 236.62875 72.11375 236.4375 72.6875 C233.82975416 76.8825694 229.62875951 79.45708016 225 81 C221.08054474 81.36291252 218.73645328 81.40170179 215.25 79.5 C212.27414425 76.19349361 211.33919174 73.22902655 210 69 C209.195625 70.03125 208.39125 71.0625 207.5625 72.125 C202.86330394 77.55224052 197.50376946 81.94003651 190.25 83.0625 C186.35546717 83.25280876 184.00331955 82.63928082 181 80 C178.39969809 76.53293078 178.45731746 73.20578965 179 69 C180.718455 65.47687988 182.82676191 62.25731235 185 59 C185.96438194 57.52476975 186.92330404 56.04594585 187.875 54.5625 C188.28492188 53.94503906 188.69484375 53.32757812 189.1171875 52.69140625 C190.23135297 50.87473313 190.23135297 50.87473313 190 48 C186.37 47.67 182.74 47.34 179 47 C178.46632813 48.0415625 177.93265625 49.083125 177.3828125 50.15625 C173.36463638 57.91633554 169.20160474 65.52860198 164.5625 72.9375 C164.13791504 73.61683594 163.71333008 74.29617188 163.27587891 74.99609375 C161.65850348 77.54523936 160.14145736 79.85854264 158 82 C157.01 82 156.02 82 155 82 C155.61118369 78.43476181 156.62022499 75.33726069 158 72 C157.34773437 72.47050781 156.69546875 72.94101562 156.0234375 73.42578125 C147.16918253 79.73345846 141.17704713 83.36642472 130 82 C123.69905536 79.07456142 120.96487561 74.03378195 118 68 C117.39414062 68.59167969 116.78828125 69.18335938 116.1640625 69.79296875 C108.75374197 76.78147104 102.24065818 82.14805424 91.75 82.5625 C86.75746227 82.32567449 83.72097718 81.53492832 80 78 C77.73250274 74.99709822 76.18833551 72.56500652 75 69 C74.3709375 69.67546875 73.741875 70.3509375 73.09375 71.046875 C62.46298825 82.12592188 62.46298825 82.12592188 53.875 83.5 C50.1509837 82.85234499 47.94318632 81.32717058 45 79 C43.20362772 75.40725544 43.28874 71.85218417 44 68 C45.99493617 64.07965626 48.46361141 60.58461771 51 57 C53.42379177 53.3444452 54.09998904 51.50005482 55 47 C51.37 47 47.74 47 44 47 C43.31035156 48.28132812 42.62070312 49.56265625 41.91015625 50.8828125 C37.46801282 59.08460943 33.01124421 67.27756118 28.0625 75.1875 C27.37285156 76.29480469 26.68320312 77.40210938 25.97265625 78.54296875 C24 81 24 81 21.74609375 81.86328125 C20.88177734 81.93095703 20.88177734 81.93095703 20 82 C20.66498383 77.61110675 22.18757677 74.0188515 24 70 C23.32453125 70.69867187 22.6490625 71.39734375 21.953125 72.1171875 C21.06109375 73.02726563 20.1690625 73.93734375 19.25 74.875 C18.36828125 75.77992188 17.4865625 76.68484375 16.578125 77.6171875 C13.11959144 80.81371095 11.16958183 81.87468766 6.5 82.375 C3 82 3 82 0.625 80.125 C-2.36619744 76.21343412 -2.47659385 72.79938367 -2 68 C-1.01937294 64.33448369 0.44672328 60.86823837 1.8671875 57.35546875 C3.79860743 52.32457969 4.29152308 48.39317689 4 43 C-1.94086021 44.21242045 -6.11803114 46.22517831 -10 51 C-14.88475728 59.93396398 -16.0720994 71.10412724 -18 81 C-20.3515625 81.58984375 -20.3515625 81.58984375 -23 82 C-25.375 80.5625 -25.375 80.5625 -27 78 C-26.63415386 70.93831866 -24.62102381 64.19261392 -22.84744263 57.37475586 C-19.80338264 45.6396085 -17.00901961 33.87423463 -14.5625 22 C-14.31604736 20.80930908 -14.06959473 19.61861816 -13.81567383 18.3918457 C-12.64403769 12.60530433 -11.62599103 6.87136417 -11 1 C-6.87831311 -0.62950412 -4.29299643 -1.26264601 0 0 Z " fill="#053F8E" transform="translate(358,643)"/>
<path d="M0 0 C-3.89864155 3.94286055 -7.88821747 7.77474272 -11.9375 11.5625 C-12.53240234 12.12646484 -13.12730469 12.69042969 -13.74023438 13.27148438 C-20.95861356 20.01652722 -26.8516405 22.70431883 -36.5 24.625 C-48.4251247 27.15031044 -59.76086054 30.72218912 -71.2109375 34.83642578 C-72.41621094 35.26036621 -73.62148438 35.68430664 -74.86328125 36.12109375 C-75.92844971 36.5070874 -76.99361816 36.89308105 -78.09106445 37.29077148 C-81.21819056 38.05319711 -82.95694066 37.97001221 -86 37 C-88.23828125 35.37109375 -88.23828125 35.37109375 -90.3125 33.4375 C-91.35857422 32.47650391 -91.35857422 32.47650391 -92.42578125 31.49609375 C-92.94527344 31.00238281 -93.46476563 30.50867188 -94 30 C-99.78032731 34.07438544 -104.95523563 38.63706319 -110.1484375 43.4296875 C-112.84657874 45.8617107 -115.60712267 48.16177874 -118.4375 50.4375 C-121.87838477 53.20484988 -125.17098484 56.05526494 -128.38061523 59.08837891 C-134.30057954 64.6804772 -140.52284436 69.35097733 -147.31591797 73.87304688 C-178.3280284 94.62571457 -207.88442651 121.92067589 -215.61328125 160.0234375 C-217.01207915 170.78994253 -215.66228405 180.5727208 -213 191 C-222.25759364 183.00605415 -225.73062064 165.63996927 -227 154 C-228.72136349 123.00348247 -220.33978622 97.7039714 -200 74 C-198.95199219 72.76830078 -198.95199219 72.76830078 -197.8828125 71.51171875 C-155.97701342 23.56611589 -86.83643745 5.00392775 -25.56298828 0.46044922 C-17.03843776 -0.08983958 -8.5379486 -0.2113935 0 0 Z " fill="#0182C0" transform="translate(502,301)"/>
<path d="M0 0 C1.39984551 4.48060802 0.16504623 8.02887605 -1.08984375 12.4140625 C-1.31321915 13.22491302 -1.53659454 14.03576355 -1.76673889 14.8711853 C-2.48120475 17.45842408 -3.20879555 20.04173912 -3.9375 22.625 C-4.66013672 25.21602823 -5.38004356 27.80778443 -6.09754944 30.40023804 C-6.54472262 32.01273542 -6.99534232 33.62428167 -7.44969177 35.23477173 C-8.58962278 39.05842279 -8.58962278 39.05842279 -9 43 C-7.98679687 42.16855469 -7.98679687 42.16855469 -6.953125 41.3203125 C-6.06109375 40.59585938 -5.1690625 39.87140625 -4.25 39.125 C-3.36828125 38.40570312 -2.4865625 37.68640625 -1.578125 36.9453125 C2.11341442 34.15987821 3.88247826 32.96078871 8.5625 33.125 C12 34 12 34 13.875 35.5625 C17.46878646 43.34903733 15.29311282 49.53047082 12.5625 57.1875 C11.89058374 59.11621961 11.22497941 61.04715238 10.56640625 62.98046875 C10.26677979 63.82504639 9.96715332 64.66962402 9.65844727 65.53979492 C8.96516171 68.13016889 8.88048461 70.33102165 9 73 C12.26939041 73.3664975 13.66725462 73.22628825 16.4296875 71.34765625 C24.35377745 63.94255621 32.72178254 55.65012935 36 45 C35.94118366 42.34542273 35.58303369 39.87476663 35.15234375 37.2578125 C35 35 35 35 36.625 31.625 C41.00737101 26.78132678 41.00737101 26.78132678 44 25 C47.25 25.125 47.25 25.125 50 26 C52.0326419 30.0652838 51.17904475 34.75169592 50 39 C50.66386719 39.01417969 51.32773437 39.02835938 52.01171875 39.04296875 C56.49045112 39.28488568 59.32039156 39.55145843 63.125 42.0625 C65.02839963 45.04449275 65.83858667 47.1190266 65.62890625 50.68359375 C64.26700139 55.69980233 60.93902619 59.78970338 58 64 C55.66434237 67.63383636 54.54038024 69.63361225 55 74 C55.33 74.99 55.66 75.98 56 77 C56.66 77 57.32 77 58 77 C58 77.66 58 78.32 58 79 C58.66 79.33 59.32 79.66 60 80 C58.19350099 81.80649901 55.56248958 81.25696966 53.125 81.3125 C52.05507813 81.34988281 50.98515625 81.38726563 49.8828125 81.42578125 C47 81 47 81 45.15625 79.234375 C43.16745595 75.39116487 43.08620561 72.21112239 44 68 C46.0075379 64.08663946 48.46374123 60.58443423 51 57 C53.42379177 53.3444452 54.09998904 51.50005482 55 47 C51.37 47 47.74 47 44 47 C43.31035156 48.28132812 42.62070312 49.56265625 41.91015625 50.8828125 C37.46801282 59.08460943 33.01124421 67.27756118 28.0625 75.1875 C27.37285156 76.29480469 26.68320312 77.40210938 25.97265625 78.54296875 C24 81 24 81 21.74609375 81.86328125 C20.88177734 81.93095703 20.88177734 81.93095703 20 82 C20.66498383 77.61110675 22.18757677 74.0188515 24 70 C23.32453125 70.69867187 22.6490625 71.39734375 21.953125 72.1171875 C21.06109375 73.02726563 20.1690625 73.93734375 19.25 74.875 C18.36828125 75.77992188 17.4865625 76.68484375 16.578125 77.6171875 C13.11959144 80.81371095 11.16958183 81.87468766 6.5 82.375 C3 82 3 82 0.625 80.125 C-2.36619744 76.21343412 -2.47659385 72.79938367 -2 68 C-1.01937294 64.33448369 0.44672328 60.86823837 1.8671875 57.35546875 C3.79860743 52.32457969 4.29152308 48.39317689 4 43 C-1.94086021 44.21242045 -6.11803114 46.22517831 -10 51 C-14.88475728 59.93396398 -16.0720994 71.10412724 -18 81 C-20.3515625 81.58984375 -20.3515625 81.58984375 -23 82 C-25.375 80.5625 -25.375 80.5625 -27 78 C-26.63415386 70.93831866 -24.62102381 64.19261392 -22.84744263 57.37475586 C-19.80338264 45.6396085 -17.00901961 33.87423463 -14.5625 22 C-14.31604736 20.80930908 -14.06959473 19.61861816 -13.81567383 18.3918457 C-12.64403769 12.60530433 -11.62599103 6.87136417 -11 1 C-6.87831311 -0.62950412 -4.29299643 -1.26264601 0 0 Z " fill="#053E8E" transform="translate(358,643)"/>
<path d="M0 0 C2.64 0 5.28 0 8 0 C9.33141647 3.99424942 8.2670807 5.57561805 6.8125 9.5 C3.61162399 18.47213541 1.79902402 27.66316586 0 37 C1.83443372 35.48047741 3.66776807 33.95967451 5.5 32.4375 C6.04664307 31.98366943 6.59328613 31.52983887 7.15649414 31.06225586 C10.2977805 28.44582629 13.38994888 25.78833267 16.4375 23.0625 C19.13143046 20.67789349 21.80602561 18.69679889 25 17 C25.495 18.485 25.495 18.485 26 20 C20.33836592 29.2684666 8.24207993 39.38365912 -1 45 C-1.66 45 -2.32 45 -3 45 C-3.10594482 45.70237793 -3.21188965 46.40475586 -3.32104492 47.12841797 C-4.6007726 55.23313924 -6.34127148 63.16244454 -8.3125 71.125 C-8.59544922 72.32253906 -8.87839844 73.52007813 -9.16992188 74.75390625 C-11.22962397 83.09318789 -13.59393044 91.14576339 -19.375 97.6875 C-23.09394452 99.54697226 -25.0432347 99.1800879 -29 98 C-34.9817253 94.36404933 -37.25044226 89.69523493 -39 83 C-40.27666447 75.30421886 -38.35241723 69.38013161 -34 63 C-28.90387135 56.82319542 -22.69566621 52.0134949 -16.16601562 47.44921875 C-14.32096729 46.15494812 -14.32096729 46.15494812 -12 44 C-12 42.68 -12 41.36 -12 40 C-13.32 40 -14.64 40 -16 40 C-16 39.01 -16 38.02 -16 37 C-16.99 37.495 -16.99 37.495 -18 38 C-20.9375 38.375 -20.9375 38.375 -24 38 C-28.07344315 32.68348735 -27.69679937 27.41212002 -27 21 C-25.44876643 14.31304399 -22.81928145 7.10772808 -17 3 C-13.125 2.5625 -13.125 2.5625 -10 3 C-9.34 4.32 -8.68 5.64 -8 7 C-4.45481116 5.60240095 -4.45481116 5.60240095 -1 4 C-0.34786708 1.97536745 -0.34786708 1.97536745 0 0 Z " fill="#043F8E" transform="translate(714,678)"/>
<path d="M0 0 C3.71711341 2.34040474 6.10616834 5.1963717 7.3125 9.4375 C8.17940516 16.68163852 7.62928259 22.92239134 4.3125 29.4375 C1.78248909 32.45405148 -0.67832222 32.67719826 -4.4375 33.125 C-5.85320961 33.24145353 -7.26972818 33.34964662 -8.6875 33.4375 C-8.6875 28.94592583 -7.4742122 26.51120381 -5.6875 22.4375 C-4.14225096 16.95888978 -3.68332322 11.57683314 -6.125 6.375 C-8.92514548 4.25781684 -9.57372999 4.09894988 -12.9375 4.25 C-18.9711001 5.31358354 -23.03278098 8.50609195 -27.07421875 12.96875 C-30.71973947 18.18760072 -30.68950981 24.33933092 -29.6875 30.4375 C-27.511574 36.03880951 -23.80271247 40.35708289 -19.88964844 44.84692383 C-11.7157264 54.25836203 -8.97533174 62.14763759 -9.37109375 74.72265625 C-10.33533448 86.04355668 -13.65241695 94.97845003 -22.0625 102.8125 C-27.21699231 106.89077963 -33.04967146 109.12922126 -39.671875 108.85546875 C-44.66162084 107.82077339 -48.42717636 104.66376084 -52 101.1875 C-55.586921 95.34214726 -57.60655213 89.28254857 -56.5234375 82.38671875 C-55.44991135 79.88349655 -54.38840664 79.20491119 -52 77.9375 C-48.62589909 76.60001856 -45.30916921 75.79966692 -41.6875 75.4375 C-41.84605469 76.14003906 -42.00460937 76.84257813 -42.16796875 77.56640625 C-43.23781078 83.47869118 -44.28768449 90.78716711 -40.875 96.0625 C-38.7281553 98.58099589 -38.7281553 98.58099589 -35.6875 100.4375 C-31.2162039 100.4375 -29.27566904 99.97219913 -25.9375 96.9375 C-20.25026479 88.97912466 -19.7230449 79.9601084 -20.6875 70.4375 C-22.79240379 61.92521611 -29.1572222 54.72375648 -34.62109375 48.08984375 C-40.33853924 41.11824893 -44.54512003 33.86804514 -43.9921875 24.58203125 C-42.76601992 15.95169788 -38.13945687 10.17257278 -31.6875 4.4375 C-22.53294708 -2.16320768 -10.69352681 -4.56018182 0 0 Z " fill="#04408F" transform="translate(327.6875,636.5625)"/>
<path d="M0 0 C2.66546305 1.37849055 3.91049034 2.70663574 6 5 C6.875 7.8125 6.875 7.8125 7 10 C5.02 10.33 3.04 10.66 1 11 C0.01 9.515 0.01 9.515 -1 8 C-4.32708257 7.08115592 -4.32708257 7.08115592 -8 8 C-13.83007489 13.10131553 -16.64561113 20.53920036 -17.24609375 28.09765625 C-17.44183601 34.84462033 -17.44183601 34.84462033 -15 41 C-12.36 41 -9.72 41 -7 41 C-6.01 43.475 -6.01 43.475 -5 46 C-9.99368897 49.17038019 -14.00906416 50.76030844 -19.94921875 49.734375 C-23.61275997 48.42247833 -25.06358139 46.2677064 -27 43 C-27.8125 39.125 -27.8125 39.125 -28 36 C-28.66 36 -29.32 36 -30 36 C-30.23976563 36.56460938 -30.47953125 37.12921875 -30.7265625 37.7109375 C-32.26641322 40.47889003 -34.12933621 42.39425756 -36.375 44.625 C-37.53128906 45.78902344 -37.53128906 45.78902344 -38.7109375 46.9765625 C-42.63254117 50.44309953 -45.68315117 51.54699211 -51.02734375 51.3671875 C-53 51 -53 51 -56 49.0625 C-59.03145662 44.42058205 -58.59191693 39.92115992 -57.50732422 34.56860352 C-56.86381285 32.11283967 -56.16839583 29.68114953 -55.4375 27.25 C-53.10782532 20.20240971 -53.10782532 20.20240971 -54 13 C-57.22186987 13 -59.34400582 13.45749004 -61.8515625 15.53125 C-67.53138137 21.62194938 -69.35003675 27.4666184 -70.8515625 35.50390625 C-71.08999878 36.71747803 -71.08999878 36.71747803 -71.33325195 37.95556641 C-71.64931301 39.59238594 -71.94015133 41.23430552 -72.20385742 42.88037109 C-72.62464287 45.07964528 -73.04365707 46.97436024 -74 49 C-77.61954292 50.92487194 -79.88749503 51 -84 51 C-83.03644647 40.44191344 -83.03644647 40.44191344 -82 36 C-82.99 36.66 -83.98 37.32 -85 38 C-85.99 37.67 -86.98 37.34 -88 37 C-86.58026214 33.86533125 -84.80037247 31.52534462 -82.625 28.875 C-78.59513492 23.3035649 -77.44571144 17.62306019 -76.24267578 10.98193359 C-75.87787994 8.97832328 -75.44468991 6.98740564 -75 5 C-71.78548731 3.39274365 -68.56387464 3.94251815 -65 4 C-65 6.64 -65 9.28 -65 12 C-64.46890625 11.51789062 -63.9378125 11.03578125 -63.390625 10.5390625 C-62.68421875 9.90742187 -61.9778125 9.27578125 -61.25 8.625 C-60.55390625 7.99851562 -59.8578125 7.37203125 -59.140625 6.7265625 C-55.15699197 3.51348623 -51.98229547 2.46234829 -46.90625 2.6328125 C-45 3 -45 3 -42.5 4.9375 C-39.36957757 11.32877913 -40.92555684 17.7074869 -43.1328125 24.203125 C-43.56207031 25.40195312 -43.56207031 25.40195312 -44 26.625 C-46.01447962 32.30546956 -47.38980451 36.94178817 -47 43 C-42.30936753 43 -40.09700281 41.48019939 -36.875 38.3125 C-32.0285583 33.08901065 -29.07104265 28.33039768 -26.625 21.625 C-23.38783984 12.94980555 -18.64203622 6.34757498 -11 1 C-7.26355133 -0.24548289 -3.874166 -0.6505675 0 0 Z " fill="#043E8D" transform="translate(705,674)"/>
<path d="M0 0 C2.02493318 2.64121719 1.72498553 4.64078783 1.4375 7.875 C2.4275 8.205 3.4175 8.535 4.4375 8.875 C3.9738495 16.56520317 2.68251086 23.90015916 0.9609375 31.39453125 C0.43455883 34.89455661 0.65005835 37.44700403 1.4375 40.875 C5.04116274 40.55702976 6.93840515 39.6182456 9.5625 37.25 C10.985625 36.074375 10.985625 36.074375 12.4375 34.875 C13.4275 35.205 14.4175 35.535 15.4375 35.875 C14.85868962 39.37873216 13.6524208 41.04293567 11.125 43.5 C10.53074219 44.09039063 9.93648437 44.68078125 9.32421875 45.2890625 C6.16131878 47.94773204 4.01981958 48.82391933 -0.125 49.1875 C-3.5625 48.875 -3.5625 48.875 -5.4375 47.8125 C-7.09735045 44.95386867 -7.25565029 42.12760697 -7.5625 38.875 C-8.2225 38.875 -8.8825 38.875 -9.5625 38.875 C-9.748125 39.431875 -9.93375 39.98875 -10.125 40.5625 C-12.73274584 44.7575694 -16.93374049 47.33208016 -21.5625 48.875 C-25.48195526 49.23791252 -27.82604672 49.27670179 -31.3125 47.375 C-34.28835575 44.06849361 -35.22330826 41.10402655 -36.5625 36.875 C-36.93761719 37.35710938 -37.31273437 37.83921875 -37.69921875 38.3359375 C-43.00987194 44.89064799 -43.00987194 44.89064799 -47.5625 45.875 C-48.5525 45.545 -49.5425 45.215 -50.5625 44.875 C-49.44316638 41.51699915 -48.53844556 40.7693549 -45.875 38.5625 C-45.153125 37.94117188 -44.43125 37.31984375 -43.6875 36.6796875 C-42.42744797 35.60956979 -41.15948166 34.54848051 -39.875 33.5078125 C-35.51575157 29.67076571 -33.9161334 25.2563922 -31.8359375 19.91015625 C-28.14781005 11.11974206 -22.58235706 5.14881982 -14.6875 0 C-9.71570013 -1.78984795 -4.89997362 -2.15120793 0 0 Z " fill="#053E8D" transform="translate(604.5625,675.125)"/>
<path d="M0 0 C1.57170996 3.14341993 1.23175783 6.55771451 1 10 C0.67 10.99 0.34 11.98 0 13 C0.74765625 13.01417969 1.4953125 13.02835938 2.265625 13.04296875 C10.25727107 13.42999873 10.25727107 13.42999873 13.6875 16.0625 C15.35559595 19.7958576 15.65348794 23.00745112 15 27 C13.65100457 29.95968408 11.87612001 32.5381143 10 35.1875 C5.61551506 41.00059414 5.61551506 41.00059414 5 48 C6.66666667 48.33333333 8.33333333 48.66666667 10 49 C11.66666667 49.33333333 13.33333333 49.66666667 15 50 C14.9375 51.8125 14.9375 51.8125 14 54 C9.58370484 56.42463264 6.10519393 57.66589486 1 57 C-1.77428577 55.73896101 -3.48317435 54.68910086 -5.3125 52.25 C-6.6122761 47.99618732 -6.82610166 44.69364654 -4.83203125 40.60546875 C-3.28743084 38.02054621 -1.67117497 35.50480558 0 33 C0.96438194 31.52476975 1.92330404 30.04594585 2.875 28.5625 C3.28492188 27.94503906 3.69484375 27.32757812 4.1171875 26.69140625 C5.23135297 24.87473313 5.23135297 24.87473313 5 22 C1.37 21.67 -2.26 21.34 -6 21 C-6.53367187 22.0415625 -7.06734375 23.083125 -7.6171875 24.15625 C-11.63536362 31.91633554 -15.79839526 39.52860198 -20.4375 46.9375 C-20.86208496 47.61683594 -21.28666992 48.29617188 -21.72412109 48.99609375 C-23.34149652 51.54523936 -24.85854264 53.85854264 -27 56 C-27.99 56 -28.98 56 -30 56 C-29.38881631 52.43476181 -28.37977501 49.33726069 -27 46 C-27.67546875 46.49371094 -28.3509375 46.98742187 -29.046875 47.49609375 C-29.93890625 48.13675781 -30.8309375 48.77742187 -31.75 49.4375 C-33.07257813 50.39462891 -33.07257813 50.39462891 -34.421875 51.37109375 C-36.72699125 52.8275081 -38.34349572 53.55931821 -41 54 C-39.36587557 52.29159719 -38.13093906 51.06546953 -36 50 C-36.66 49.67 -37.32 49.34 -38 49 C-38.99 49.495 -38.99 49.495 -40 50 C-41.87379605 50.07033769 -43.75001102 50.0843022 -45.625 50.0625 C-46.62789063 50.05347656 -47.63078125 50.04445313 -48.6640625 50.03515625 C-49.43492187 50.02355469 -50.20578125 50.01195312 -51 50 C-51.33 49.34 -51.66 48.68 -52 48 C-50.72125 48.103125 -49.4425 48.20625 -48.125 48.3125 C-38.59674884 48.25285524 -31.93064366 42.48307101 -25.2265625 36.28125 C-20.28524671 31.21856856 -16.28521625 25.7449114 -14 19 C-14.08188808 16.63694385 -14.47803636 14.49077098 -14.91796875 12.171875 C-15.075075 8.01229987 -12.56443031 5.07587568 -10 2 C-6.72036935 -1.49121973 -4.5239806 -1.30692773 0 0 Z " fill="#053C8C" transform="translate(543,669)"/>
<path d="M0 0 C35.74710038 -1.02089698 71.71679197 4.94668089 106 15 C101.62086299 16.3302627 97.84313431 15.45998306 93.4375 14.625 C81.93957495 12.48585115 70.94981614 11.90728635 59.2578125 12.2890625 C56.61849975 12.34553663 53.97927695 12.39943192 51.33984375 12.44921875 C47.22877266 12.52701906 43.12016923 12.61910162 39.01123047 12.77490234 C12.47735606 13.75274872 12.47735606 13.75274872 4.6171875 6.5234375 C0 1.83294231 0 1.83294231 0 0 Z " fill="#0982C0" transform="translate(524,302)"/>
<path d="M0 0 C3.25 0.5625 3.25 0.5625 5.25 2.5625 C5.4453125 5.8203125 5.4453125 5.8203125 5.375 9.6875 C5.35695313 10.96882812 5.33890625 12.25015625 5.3203125 13.5703125 C5.29710937 14.55773437 5.27390625 15.54515625 5.25 16.5625 C5.91 16.5625 6.57 16.5625 7.25 16.5625 C6.75451541 23.74702662 5.21082869 27.95415092 -0.375 32.875 C-4.03325253 35.47428469 -6.22317234 36.11680543 -10.75 35.5625 C-14.82344315 30.24598735 -14.44679937 24.97462002 -13.75 18.5625 C-11.93835793 10.75299211 -8.7639069 1.31458603 0 0 Z " fill="#FAFBFD" transform="translate(700.75,680.4375)"/>
<path d="M0 0 C-0.33 1.32 -0.66 2.64 -1 4 C-0.01 4 0.98 4 2 4 C1.06547288 15.56177787 0.01086642 23.73773493 -8.33203125 32.26171875 C-11.48778101 34.31780754 -13.30468114 34.3722292 -17 34 C-19.51015642 30.23476536 -19.59971285 26.35541459 -19 22 C-16.48446553 13.12416532 -10.87133494 -0.90594458 0 0 Z " fill="#F8FAFC" transform="translate(598,681)"/>
<path d="M0 0 C1.31435708 3.67722765 0.67429461 6.18373698 -0.328125 9.90234375 C-0.63363281 11.03994141 -0.93914063 12.17753906 -1.25390625 13.34960938 C-1.74697266 15.12561523 -1.74697266 15.12561523 -2.25 16.9375 C-2.71986328 18.70770508 -2.71986328 18.70770508 -3.19921875 20.51367188 C-4.64729953 25.82229996 -5.97343414 30.35709419 -9 35 C-11.375 34.75 -11.375 34.75 -14 34 C-17.01978842 29.39742592 -16.77226224 24.27946552 -16 19 C-12.90594889 10.81416399 -6.62525529 5.42066342 0 0 Z " fill="#F7FAFC" transform="translate(699,731)"/>
<path d="M0 0 C3.0625 2 3.0625 2 5 5 C5.09399153 10.92146651 3.83482818 14.3785404 0 19 C-4.23835527 23.29257729 -7.96354991 26.64179873 -14 28 C-13.67 27.01 -13.34 26.02 -13 25 C-13.66 25 -14.32 25 -15 25 C-13.63522531 21.79723728 -12.23871927 20.21677576 -9.4375 18.1875 C-6.39542281 15.71975688 -6.04477751 15.18508039 -5.0625 11.125 C-5.041875 10.09375 -5.02125 9.0625 -5 8 C-9.21912747 8.4794463 -11.79663178 9.16625119 -15 12 C-15 10.35 -15 8.7 -15 7 C-16.32 7.33 -17.64 7.66 -19 8 C-13.28742374 1.7833729 -8.42307792 -1.0695972 0 0 Z " fill="#043E8D" transform="translate(508,674)"/>
<path d="M0 0 C2.21484375 1.22265625 2.21484375 1.22265625 4 3 C5.18775101 7.34223259 4.83340791 11.49938402 2.6484375 15.43359375 C1.17967635 17.38614116 -0.32859028 19.21915274 -2 21 C-2.66 20.67 -3.32 20.34 -4 20 C-3.67 19.34 -3.34 18.68 -3 18 C-6.12498166 17.6626154 -6.12498166 17.6626154 -8.1875 20 C-8.785625 20.66 -9.38375 21.32 -10 22 C-10.66 21.67 -11.32 21.34 -12 21 C-11.4946875 20.48050781 -10.989375 19.96101562 -10.46875 19.42578125 C-9.8190625 18.72839844 -9.169375 18.03101563 -8.5 17.3125 C-7.8503125 16.62800781 -7.200625 15.94351563 -6.53125 15.23828125 C-4.72186216 12.59343628 -4.6922083 11.13837611 -5 8 C-8.60296594 7.58823246 -9.78402067 7.8464147 -12.8125 10 C-13.534375 10.66 -14.25625 11.32 -15 12 C-15.33 10.35 -15.66 8.7 -16 7 C-14.68 6.67 -13.36 6.34 -12 6 C-11.67 4.35 -11.34 2.7 -11 1 C-7.35680603 -0.21439799 -3.79156675 -0.61130827 0 0 Z " fill="#033C8C" transform="translate(464,674)"/>
<path d="M0 0 C2.4375 0.1875 2.4375 0.1875 3.4375 1.1875 C3.60425518 5.27300187 3.29761411 7.20116369 0.57421875 10.32421875 C-3.49936422 14.02809839 -7.46047475 17.09436144 -12.5625 19.1875 C-11.66690288 12.51684562 -8.00471018 0.5857105 0 0 Z " fill="#F4F8FB" transform="translate(456.5625,680.8125)"/>
<path d="M0 0 C0.763125 0.20625 1.52625 0.4125 2.3125 0.625 C2.39659876 4.66174025 2.1456114 6.66587175 -0.546875 9.765625 C-4.62677625 13.46217983 -8.58517024 16.53173651 -13.6875 18.625 C-12.75049149 11.64590212 -10.54096675 6.77486167 -5.6875 1.625 C-2.6875 -0.375 -2.6875 -0.375 0 0 Z " fill="#F4F8FB" transform="translate(501.6875,681.375)"/>
<path d="M0 0 C8.86947292 0.43883324 17.11647574 2.31866006 25.6875 4.5625 C26.98612863 4.89596018 28.28495601 5.22864733 29.58398438 5.56054688 C32.7246862 6.36615441 35.86317969 7.17943363 39 8 C34.80137203 9.25290011 31.34385923 8.50511905 27.125 7.6875 C6.9053272 4.08676454 -13.51305206 3.53196002 -34 3 C-34 2.67 -34 2.34 -34 2 C-22.78 1.67 -11.56 1.34 0 1 C0 0.67 0 0.34 0 0 Z " fill="#036DB7" transform="translate(591,309)"/>
<path d="M0 0 C5.47570738 1.75584666 10.8222434 3.81257611 16.1875 5.875 C23.43544945 8.64998298 30.68811258 11.39717357 38 14 C34.52176885 15.15941038 32.54104422 14.70820884 29 14 C29 14.66 29 15.32 29 16 C32.465 17.98 32.465 17.98 36 20 C35.01 20.495 35.01 20.495 34 21 C31.39716694 19.83500994 28.93897408 18.60733316 26.4375 17.25 C25.69185791 16.85039063 24.94621582 16.45078125 24.17797852 16.0390625 C15.84141072 11.49105103 7.77646645 6.45033944 0 1 C0 0.67 0 0.34 0 0 Z " fill="#0974B9" transform="translate(339,547)"/>
<path d="M0 0 C-13.37175108 14.25664637 -13.37175108 14.25664637 -22.3125 15.4375 C-25 15 -25 15 -28 12 C-24.37 12 -20.74 12 -17 12 C-17.33 11.01 -17.66 10.02 -18 9 C-18.66 8.67 -19.32 8.34 -20 8 C-18.7625 7.5875 -17.525 7.175 -16.25 6.75 C-12.6105221 5.40275467 -10.70319796 3.79330456 -8 1 C-2.56521739 -1.2826087 -2.56521739 -1.2826087 0 0 Z " fill="#0C3A8B" transform="translate(434,711)"/>
<path d="M0 0 C0.66 0.33 1.32 0.66 2 1 C0.58793323 5.42659135 -1.56114445 7.90947845 -4.875 11.125 C-5.73867188 11.97320313 -6.60234375 12.82140625 -7.4921875 13.6953125 C-9.58827602 15.62162438 -11.68368658 17.35164673 -14 19 C-14.66 18.67 -15.32 18.34 -16 18 C-15.82726204 14.26886017 -14.72359949 12.44302162 -12.12890625 9.921875 C-10.95038413 8.85313665 -9.76115958 7.7961029 -8.5625 6.75 C-7.96373047 6.20859375 -7.36496094 5.6671875 -6.74804688 5.109375 C-2.36425919 1.1821296 -2.36425919 1.1821296 0 0 Z " fill="#06388A" transform="translate(738,695)"/>
<path d="M0 0 C10.27255561 8.11383016 23.17013356 23.56426836 25 37 C22.70655185 34.09946263 20.95166541 31.15405189 19.25 27.875 C16.24489284 22.26496326 12.75939825 17.12746329 9 12 C7.768606 14.46278801 7.92840804 16.2795055 8 19 C6.29810232 15.71494168 4.85567768 12.35382654 3.4375 8.9375 C3.00308594 7.89464844 2.56867187 6.85179687 2.12109375 5.77734375 C1.35320395 3.87501048 0.64873158 1.94619474 0 0 Z " fill="#0974B8" transform="translate(719,378)"/>
<path d="M0 0 C0 4.72470783 -0.44089934 7.73615721 -3.5 11.4375 C-5.1015625 12.97265625 -5.1015625 12.97265625 -7 14 C-10.21490508 13.91098797 -12.99472767 13.10861157 -16 12 C-16 11.01 -16 10.02 -16 9 C-15.26007812 9.23203125 -14.52015625 9.4640625 -13.7578125 9.703125 C-10.97607566 10.28918682 -10.97607566 10.28918682 -8.8671875 8.671875 C-8.20976563 8.03765625 -7.55234375 7.4034375 -6.875 6.75 C-6.21242188 6.12609375 -5.54984375 5.5021875 -4.8671875 4.859375 C-4.25101563 4.24578125 -3.63484375 3.6321875 -3 3 C-2.42507813 2.42765625 -1.85015625 1.8553125 -1.2578125 1.265625 C-0.63519531 0.63914062 -0.63519531 0.63914062 0 0 Z " fill="#053086" transform="translate(673,707)"/>
<path d="M0 0 C-0.33 0.66 -0.66 1.32 -1 2 C0.98 1.67 2.96 1.34 5 1 C2.40145616 4.03163448 -0.27636062 5.57824678 -4 7 C-7.35029625 7.24038 -10.64779278 7.17887272 -14 7 C-14 6.67 -14 6.34 -14 6 C-12.02 6 -10.04 6 -8 6 C-7.67 5.01 -7.34 4.02 -7 3 C-8.32 2.01 -9.64 1.02 -11 0 C-3.375 -1.125 -3.375 -1.125 0 0 Z " fill="#033086" transform="translate(460,718)"/>
<path d="M0 0 C0 3 0 3 -2 6 C-2 6.99 -2 7.98 -2 9 C-4.49383472 12.78693421 -6.56116833 14.86183803 -11 16 C-11.99 15.67 -12.98 15.34 -14 15 C-12.87563746 11.62691239 -11.92657267 10.84876903 -9.25 8.625 C-6.00331159 5.87465784 -2.96094821 3.05347784 0 0 Z " fill="#093789" transform="translate(568,705)"/>
<path d="M0 0 C1.76923828 0.01353516 1.76923828 0.01353516 3.57421875 0.02734375 C4.47785156 0.03894531 5.38148438 0.05054688 6.3125 0.0625 C6.3125 0.3925 6.3125 0.7225 6.3125 1.0625 C4.0025 1.3925 1.6925 1.7225 -0.6875 2.0625 C-0.6875 2.3925 -0.6875 2.7225 -0.6875 3.0625 C1.7875 3.5575 1.7875 3.5575 4.3125 4.0625 C4.3125 4.3925 4.3125 4.7225 4.3125 5.0625 C0.6825 5.7225 -2.9475 6.3825 -6.6875 7.0625 C-6.3575 6.0725 -6.0275 5.0825 -5.6875 4.0625 C-6.3475 3.7325 -7.0075 3.4025 -7.6875 3.0625 C-9.63746045 3.87017387 -9.63746045 3.87017387 -11.6875 5.0625 C-13.8125 6.25 -13.8125 6.25 -15.6875 7.0625 C-16.3475 6.7325 -17.0075 6.4025 -17.6875 6.0625 C-16.41918307 5.24607746 -15.14774069 4.43450895 -13.875 3.625 C-13.16730469 3.17253906 -12.45960938 2.72007812 -11.73046875 2.25390625 C-7.7598316 -0.06166609 -4.50873918 -0.04464098 0 0 Z " fill="#072D83" transform="translate(314.6875,634.9375)"/>
<path d="M0 0 C0.76763672 0.17466797 1.53527344 0.34933594 2.32617188 0.52929688 C3.11958984 0.71943359 3.91300781 0.90957031 4.73046875 1.10546875 C5.51228516 1.28400391 6.29410156 1.46253906 7.09960938 1.64648438 C11.75097898 2.72286648 16.33913835 3.94193868 20.91796875 5.29296875 C16.53754248 6.62362309 12.76212281 5.74938718 8.35546875 4.91796875 C1.55348236 3.70200567 -5.17851185 2.73394246 -12.08203125 2.29296875 C-7.85744896 0.02979966 -4.7453051 -1.10318489 0 0 Z " fill="#2B86C1" transform="translate(609.08203125,311.70703125)"/>
<path d="M0 0 C0.33 0 0.66 0 1 0 C1.33 1.65 1.66 3.3 2 5 C3.65 5.33 5.3 5.66 7 6 C5.1875 9 5.1875 9 3 12 C2.01 12 1.02 12 0 12 C0.33 11.34 0.66 10.68 1 10 C-2.12498166 9.6626154 -2.12498166 9.6626154 -4.1875 12 C-4.785625 12.66 -5.38375 13.32 -6 14 C-6.66 13.67 -7.32 13.34 -8 13 C-7.50628906 12.48050781 -7.01257813 11.96101562 -6.50390625 11.42578125 C-5.86324219 10.72839844 -5.22257812 10.03101563 -4.5625 9.3125 C-3.92441406 8.62800781 -3.28632813 7.94351563 -2.62890625 7.23828125 C-0.83778902 4.77710578 -0.37201442 2.99183426 0 0 Z " fill="#042E83" transform="translate(460,682)"/>
<path d="M0 0 C0.99 0.33 1.98 0.66 3 1 C3 1.66 3 2.32 3 3 C5.97 3.495 5.97 3.495 9 4 C9 4.33 9 4.66 9 5 C7.9275 5.268125 6.855 5.53625 5.75 5.8125 C2.43491072 6.86227827 0.56122354 7.74612328 -2 10 C-2 8.35 -2 6.7 -2 5 C-3.32 5.33 -4.64 5.66 -6 6 C-4 4 -2 2 0 0 Z " fill="#053286" transform="translate(495,676)"/>
<path d="M0 0 C0.66 1.32 1.32 2.64 2 4 C-0.64 6.64 -3.28 9.28 -6 12 C-6.66 11.67 -7.32 11.34 -8 11 C-7.67 10.34 -7.34 9.68 -7 9 C-7.66 8.67 -8.32 8.34 -9 8 C-6.03 5.36 -3.06 2.72 0 0 Z " fill="#042C82" transform="translate(380,709)"/>
<path d="M0 0 C-3.3 3.3 -6.6 6.6 -10 10 C-10.66 9.67 -11.32 9.34 -12 9 C-11.67 8.34 -11.34 7.68 -11 7 C-11.66 6.67 -12.32 6.34 -13 6 C-9.70862872 2.32140857 -5.25202969 -2.62601484 0 0 Z " fill="#043186" transform="translate(434,711)"/>
<path d="M0 0 C0 3 0 3 -1 5 C-0.34 5.33 0.32 5.66 1 6 C0.54109375 6.43828125 0.0821875 6.8765625 -0.390625 7.328125 C-5.81504588 12.93487936 -7.99508286 18.52825912 -10 26 C-10.33 26 -10.66 26 -11 26 C-10.61204869 20.56868164 -9.64554791 16.72608606 -7.04296875 11.953125 C-6.0345978 10.06478989 -5.22685448 8.17550389 -4.4375 6.1875 C-3.18490509 3.41000694 -2.32627454 1.88317463 0 0 Z " fill="#082C83" transform="translate(644,682)"/>
<path d="M0 0 C0 0.99 0 1.98 0 3 C-5.39190328 7.92304213 -7.76902972 9.13390686 -15 9 C-15.33 8.34 -15.66 7.68 -16 7 C-13.69 7.33 -11.38 7.66 -9 8 C-8.67 6.35 -8.34 4.7 -8 3 C-6.865625 2.690625 -5.73125 2.38125 -4.5625 2.0625 C-1.21224901 1.37075469 -1.21224901 1.37075469 0 0 Z " fill="#023185" transform="translate(616,715)"/>
<path d="M0 0 C0.66 0.99 1.32 1.98 2 3 C1.34 3.66 0.68 4.32 0 5 C0 5.99 0 6.98 0 8 C1.32 7.01 2.64 6.02 4 5 C2.95125002 7.62187494 2.35068687 8.79371361 -0.125 10.25 C-0.74375 10.4975 -1.3625 10.745 -2 11 C-2 10.34 -2 9.68 -2 9 C-3.65 9 -5.3 9 -7 9 C-6.02180976 7.68677212 -5.0424189 6.37443848 -4.0625 5.0625 C-3.51722656 4.33160156 -2.97195313 3.60070312 -2.41015625 2.84765625 C-1 1 -1 1 0 0 Z " fill="#033286" transform="translate(305,729)"/>
<path d="M0 0 C0.68707555 2.49064888 1 4.37886292 1 7 C-1 8.6875 -1 8.6875 -3 10 C-2.67 8.35 -2.34 6.7 -2 5 C-4.64 7.31 -7.28 9.62 -10 12 C-10.66 11.67 -11.32 11.34 -12 11 C-10.75323147 9.72599623 -9.5024352 8.45593346 -8.25 7.1875 C-7.55390625 6.47980469 -6.8578125 5.77210938 -6.140625 5.04296875 C-4.18571355 3.17724121 -2.19661447 1.56830358 0 0 Z " fill="#032981" transform="translate(693,729)"/>
<path d="M0 0 C2.64 0 5.28 0 8 0 C9.12018319 3.36054957 8.90181274 4.01723271 7.78515625 7.23046875 C7.51123047 8.03291016 7.23730469 8.83535156 6.95507812 9.66210938 C6.51325195 10.91217773 6.51325195 10.91217773 6.0625 12.1875 C5.77181641 13.03248047 5.48113281 13.87746094 5.18164062 14.74804688 C4.46242463 16.83495229 3.7349657 18.91859994 3 21 C1.74455019 16.87550934 2.56509917 14.46909809 3.9375 10.375 C5.43907264 6.26744857 5.43907264 6.26744857 6 2 C4.02 2 2.04 2 0 2 C0 1.34 0 0.68 0 0 Z " fill="#05237E" transform="translate(714,678)"/>
<path d="M0 0 C0 3 0 3 -1 6 C-3.31 6.33 -5.62 6.66 -8 7 C-8 5.33333333 -8 3.66666667 -8 2 C-5 1 -5 1 -2 2 C-1.34 1.34 -0.68 0.68 0 0 Z " fill="#0B4895" transform="translate(467,714)"/>
<path d="M0 0 C-0.66 1.32 -1.32 2.64 -2 4 C-2 3.34 -2 2.68 -2 2 C-4.31 2.66 -6.62 3.32 -9 4 C-9 4.66 -9 5.32 -9 6 C-10.65 6.33 -12.3 6.66 -14 7 C-13 4 -13 4 -10.8203125 2.83203125 C-9.93085938 2.49558594 -9.04140625 2.15914062 -8.125 1.8125 C-7.24070312 1.46832031 -6.35640625 1.12414062 -5.4453125 0.76953125 C-3 0 -3 0 0 0 Z " fill="#123887" transform="translate(286,712)"/>
<path d="M0 0 C0 0.99 0 1.98 0 3 C-0.61875 3.598125 -1.2375 4.19625 -1.875 4.8125 C-4.37326743 7.38424589 -5.06681077 9.57830617 -6 13 C-6.66 12.67 -7.32 12.34 -8 12 C-7.67 11.34 -7.34 10.68 -7 10 C-7.66 10 -8.32 10 -9 10 C-7.61811547 6.78956118 -6.07578097 4.95063635 -3.375 2.75 C-2.74335938 2.22921875 -2.11171875 1.7084375 -1.4609375 1.171875 C-0.73777344 0.59179688 -0.73777344 0.59179688 0 0 Z " fill="#022D83" transform="translate(502,689)"/>
<path d="M0 0 C0.99 4.62 1.98 9.24 3 14 C0.2447914 11.2447914 -0.7340486 9.77071195 -2.1875 6.3125 C-2.53167969 5.50425781 -2.87585938 4.69601562 -3.23046875 3.86328125 C-3.48441406 3.24839844 -3.73835938 2.63351562 -4 2 C-1 0 -1 0 0 0 Z " fill="#1B81BF" transform="translate(286,478)"/>
<path d="M0 0 C0.99 0.66 1.98 1.32 3 2 C-2.17578125 5.22265625 -2.17578125 5.22265625 -4 6 C-4.99 5.67 -5.98 5.34 -7 5 C-6.67 4.01 -6.34 3.02 -6 2 C-3.125 0.6875 -3.125 0.6875 0 0 Z " fill="#014794" transform="translate(505,717)"/>
<path d="M0 0 C0 3 0 3 -2 6 C-2 6.99 -2 7.98 -2 9 C-4 10.6875 -4 10.6875 -6 12 C-6.375 9.375 -6.375 9.375 -6 6 C-4.19946381 3.66246179 -2.2392198 1.95931733 0 0 Z " fill="#032881" transform="translate(568,705)"/>
<path d="M0 0 C5.61 0 11.22 0 17 0 C16.01 1.485 16.01 1.485 15 3 C7.575 2.01 7.575 2.01 0 1 C0 0.67 0 0.34 0 0 Z " fill="#308EC7" transform="translate(485,301)"/>
<path d="M0 0 C0.66 0.33 1.32 0.66 2 1 C1.67 1.99 1.34 2.98 1 4 C0.01 4 -0.98 4 -2 4 C-3.66756036 5.30436727 -3.66756036 5.30436727 -5.1875 7 C-5.71730469 7.556875 -6.24710938 8.11375 -6.79296875 8.6875 C-7.19128906 9.120625 -7.58960938 9.55375 -8 10 C-8.66 9.67 -9.32 9.34 -10 9 C-8.71142987 7.68445979 -7.41904109 6.37265903 -6.125 5.0625 C-5.04605469 3.96615234 -5.04605469 3.96615234 -3.9453125 2.84765625 C-2 1 -2 1 0 0 Z " fill="#05257C" transform="translate(738,695)"/>
<path d="M0 0 C0.66 0.99 1.32 1.98 2 3 C0.71937515 4.7074998 -0.61767557 6.37373596 -2 8 C-2.66 8 -3.32 8 -4 8 C-4.33 8.66 -4.66 9.32 -5 10 C-4.49701212 5.59885603 -2.91227269 3.28804981 0 0 Z " fill="#043286" transform="translate(291,646)"/>
<path d="M0 0 C1.32 0.66 2.64 1.32 4 2 C2.02 4.31 0.04 6.62 -2 9 C-2.33 8.34 -2.66 7.68 -3 7 C-2.06421005 4.64018187 -1.06652192 2.30368736 0 0 Z " fill="#E1ECF4" transform="translate(350,680)"/>
<path d="M0 0 C1 3 1 3 1 5 C0.34 5 -0.32 5 -1 5 C-1.33 7.97 -1.66 10.94 -2 14 C-2.33 14 -2.66 14 -3 14 C-3.29341888 8.32723489 -3.00559652 5.00932754 0 0 Z " fill="#052B82" transform="translate(678,745)"/>
<path d="M0 0 C1.32 0.66 2.64 1.32 4 2 C3.67 3.32 3.34 4.64 3 6 C2.01 6 1.02 6 0 6 C-0.66 5.34 -1.32 4.68 -2 4 C-1.34 2.68 -0.68 1.36 0 0 Z " fill="#0C4892" transform="translate(694,728)"/>
<path d="M0 0 C1.32 0.33 2.64 0.66 4 1 C3.625 2.9375 3.625 2.9375 3 5 C2.01 5.495 2.01 5.495 1 6 C1 5.01 1 4.02 1 3 C-0.32 3.33 -1.64 3.66 -3 4 C-2.01 2.68 -1.02 1.36 0 0 Z " fill="#184692" transform="translate(616,710)"/>
<path d="M0 0 C1 2 1 2 1 4 C1.66 4.33 2.32 4.66 3 5 C0 7 0 7 -3 7 C-2.67 5.68 -2.34 4.36 -2 3 C-2.66 2.67 -3.32 2.34 -4 2 C-2.68 1.34 -1.36 0.68 0 0 Z " fill="#053184" transform="translate(447,698)"/>
<path d="M0 0 C1.98 1.65 3.96 3.3 6 5 C5.67 6.65 5.34 8.3 5 10 C0 2.5 0 2.5 0 0 Z " fill="#1E80C1" transform="translate(719,378)"/>
<path d="M0 0 C0.33 0.66 0.66 1.32 1 2 C-0.25 5.0625 -0.25 5.0625 -2 8 C-2.99 8.33 -3.98 8.66 -5 9 C-4.67 7.35 -4.34 5.7 -4 4 C-3.01 3.67 -2.02 3.34 -1 3 C-0.67 2.01 -0.34 1.02 0 0 Z " fill="#E8F1F6" transform="translate(517,712)"/>
<path d="M0 0 C0.33 0 0.66 0 1 0 C1 1.98 1 3.96 1 6 C-0.66666667 6 -2.33333333 6 -4 6 C-2.84826645 3.53199953 -1.95216435 1.95216435 0 0 Z " fill="#042F84" transform="translate(621,705)"/>
<path d="M0 0 C-0.33 0.99 -0.66 1.98 -1 3 C-3.31 3.33 -5.62 3.66 -8 4 C-5.52914451 0.29371676 -4.37054922 0 0 0 Z " fill="#0C3A89" transform="translate(700,674)"/>
<path d="M0 0 C2.64 0 5.28 0 8 0 C8.33 0.99 8.66 1.98 9 3 C8.01 4.485 8.01 4.485 7 6 C6.67 4.68 6.34 3.36 6 2 C4.02 2 2.04 2 0 2 C0 1.34 0 0.68 0 0 Z " fill="#0D2C82" transform="translate(714,678)"/>
<path d="M0 0 C0.99 0 1.98 0 3 0 C2.67 1.98 2.34 3.96 2 6 C1.01 6 0.02 6 -1 6 C-0.67 4.02 -0.34 2.04 0 0 Z " fill="#0F4592" transform="translate(697,743)"/>
<path d="M0 0 C0.33 0.99 0.66 1.98 1 3 C2.98 2.34 4.96 1.68 7 1 C6.67 2.32 6.34 3.64 6 5 C3.69 5 1.38 5 -1 5 C-0.67 3.35 -0.34 1.7 0 0 Z " fill="#084A95" transform="translate(623,719)"/>
<path d="M0 0 C0.66 0.33 1.32 0.66 2 1 C1.01 2.485 1.01 2.485 0 4 C0.66 4.33 1.32 4.66 2 5 C0.68 5.99 -0.64 6.98 -2 8 C-2.6875 6.25 -2.6875 6.25 -3 4 C-1.5625 1.75 -1.5625 1.75 0 0 Z " fill="#032B81" transform="translate(350,685)"/>
</svg>
